<svg width="406" height="174" viewBox="0 0 406 174" fill="none" xmlns="http://www.w3.org/2000/svg">
<path d="M106.031 63.768C104.645 63.768 103.194 63.6507 101.679 63.416C100.165 63.2027 98.7566 62.7547 97.4553 62.072C96.1539 61.3894 95.0979 60.3654 94.2873 59C93.4766 57.6347 93.0713 55.8214 93.0713 53.56C93.0713 53.0694 93.0713 52.5894 93.0713 52.12C93.0713 51.6294 93.0713 51.1387 93.0713 50.648V37.656H85.3593V29.016H86.5433C88.0153 29.016 89.1886 28.952 90.0633 28.824C90.9379 28.696 91.5886 28.376 92.0153 27.864C92.4419 27.352 92.7193 26.5627 92.8473 25.496C92.9966 24.408 93.0713 22.904 93.0713 20.984V17.848H104.527V29.016H114.127V37.656H104.527V48.44C104.527 48.8027 104.527 49.1547 104.527 49.496C104.527 49.816 104.527 50.1467 104.527 50.488C104.527 51.832 104.687 52.952 105.007 53.848C105.327 54.744 106.159 55.192 107.503 55.192C108.25 55.192 108.954 55.1174 109.615 54.968C110.277 54.8187 110.767 54.68 111.087 54.552V62.936C110.618 63.128 109.946 63.3094 109.071 63.48C108.197 63.672 107.183 63.768 106.031 63.768Z" fill="#333333"/>
<path fill-rule="evenodd" clip-rule="evenodd" d="M3.55176 29.016V76.984H14.9758V59.1009C15.833 60.0463 16.793 60.8767 17.8558 61.592C20.0958 63.064 22.5598 63.8 25.2478 63.8C28.0851 63.8 30.7091 63.128 33.1198 61.784C35.5304 60.4187 37.4718 58.4027 38.9438 55.736C40.4158 53.0694 41.1518 49.7627 41.1518 45.816C41.1518 42.0614 40.3944 38.8827 38.8798 36.28C37.3864 33.6774 35.4238 31.704 32.9918 30.36C30.5811 29.016 27.9998 28.344 25.2478 28.344C22.5598 28.344 20.0958 29.048 17.8558 30.456C16.793 31.1203 15.833 31.902 14.9758 32.8012V29.016H3.55176ZM14.9758 44.728V32.8012C14.9382 32.8406 14.9009 32.8802 14.8638 32.92C13.9784 33.8694 13.2051 34.9467 12.5438 36.152C11.2211 38.5627 10.5598 41.3254 10.5598 44.44L14.9758 44.728ZM14.9758 46.904C14.9758 48.3974 15.3171 49.688 15.9998 50.776C16.7038 51.8427 17.5998 52.664 18.6878 53.24C19.7971 53.7947 20.9384 54.072 22.1118 54.072C24.0104 54.072 25.6958 53.4107 27.1678 52.088C28.6398 50.7654 29.3758 48.6747 29.3758 45.816C29.3758 42.9574 28.6398 40.8987 27.1678 39.64C25.7171 38.36 24.0318 37.72 22.1118 37.72C20.9598 37.72 19.8291 37.9974 18.7198 38.552C17.6318 39.0854 16.7358 39.8747 16.0318 40.92C15.3278 41.944 14.9758 43.2134 14.9758 44.728V46.52V46.744V46.904Z" fill="#333333"/>
<path fill-rule="evenodd" clip-rule="evenodd" d="M154.634 62.584C156.554 63.352 158.74 63.736 161.194 63.736C163.242 63.736 165.183 63.4587 167.018 62.904C168.852 62.328 170.442 61.5067 171.786 60.44C172.171 60.1388 172.526 59.8215 172.85 59.488C172.925 59.7593 173.007 60.034 173.098 60.312C173.332 60.952 173.61 61.5174 173.93 62.008C174.271 62.4987 174.527 62.8294 174.698 63H185.866C185.652 62.808 185.364 62.4454 185.002 61.912C184.66 61.3787 184.372 60.728 184.138 59.96C183.946 59.256 183.828 58.488 183.786 57.656C183.743 56.8027 183.722 55.928 183.722 55.032V43.768V42.424V41.08C183.722 38.1787 182.9 35.7894 181.258 33.912C179.636 32.0347 177.503 30.6374 174.858 29.72C172.234 28.8027 169.386 28.344 166.314 28.344C163.071 28.344 160.138 28.8347 157.514 29.816C154.89 30.7974 152.799 32.248 151.242 34.168C149.706 36.0667 148.938 38.4134 148.938 41.208H160.202C160.202 39.7574 160.703 38.68 161.706 37.976C162.73 37.2507 164.234 36.888 166.218 36.888C168.095 36.888 169.567 37.208 170.634 37.848C171.722 38.488 172.266 39.32 172.266 40.344V40.376V40.408C172.266 41.0694 171.604 41.5387 170.282 41.816C168.98 42.072 166.538 42.3707 162.954 42.712C160.479 42.9467 158.132 43.4694 155.914 44.28C153.695 45.0694 151.892 46.232 150.506 47.768C149.119 49.2827 148.426 51.2667 148.426 53.72C148.426 55.8534 148.98 57.6667 150.09 59.16C151.199 60.6534 152.714 61.7947 154.634 62.584ZM168.266 54.648C167.05 55.1814 165.78 55.448 164.458 55.448C162.964 55.448 161.823 55.2134 161.034 54.744C160.266 54.2747 159.882 53.5707 159.882 52.632C159.882 51.6507 160.33 50.9467 161.226 50.52C162.122 50.0934 163.476 49.784 165.29 49.592C166.996 49.4214 168.746 49.176 170.538 48.856C171.189 48.732 171.815 48.5981 172.415 48.4543C172.295 49.9251 171.914 51.1364 171.274 52.088C170.484 53.2614 169.482 54.1147 168.266 54.648ZM172.458 47.384C172.458 47.7549 172.444 48.1116 172.415 48.4543C172.435 48.4497 172.454 48.4451 172.473 48.4405C173.503 48.1922 174.458 47.9147 175.338 47.608L172.458 45.048V47.384Z" fill="#333333"/>
<path d="M172.458 45.048V47.384C172.458 47.7549 172.444 48.1116 172.415 48.4543L172.473 48.4405C173.503 48.1922 174.458 47.9147 175.338 47.608L172.458 45.048Z" fill="#333333"/>
<path fill-rule="evenodd" clip-rule="evenodd" d="M119.802 29.016V63H131.226V47.8C131.226 46.6694 131.375 45.5387 131.674 44.408C131.994 43.2774 132.495 42.2534 133.178 41.336C133.882 40.4187 134.81 39.6934 135.962 39.16C137.135 38.6054 138.564 38.328 140.25 38.328C141.231 38.328 142.052 38.4454 142.714 38.68C143.375 38.8934 143.802 39.0534 143.994 39.16L145.69 29.08C145.498 28.9734 145.028 28.824 144.282 28.632C143.556 28.44 142.5 28.344 141.114 28.344C139.407 28.344 137.871 28.6107 136.506 29.144C135.162 29.6774 133.978 30.4454 132.954 31.448C132.301 32.087 131.725 32.8165 131.226 33.6363V29.016H119.802ZM131.226 41.176V33.6363C131.222 33.6428 131.218 33.6492 131.214 33.6556C130.951 34.0892 130.71 34.548 130.49 35.032C129.85 36.4187 129.38 37.9547 129.082 39.64L131.226 41.176Z" fill="#333333"/>
<path d="M129.082 39.64L131.226 41.176V33.6363L131.214 33.6556C130.951 34.0892 130.71 34.548 130.49 35.032C129.85 36.4187 129.38 37.9547 129.082 39.64Z" fill="#333333"/>
<path fill-rule="evenodd" clip-rule="evenodd" d="M71.3777 42.136H56.6518C56.7775 41.6726 56.9304 41.2352 57.1103 40.824C57.7289 39.4374 58.6249 38.392 59.7983 37.688C60.9929 36.9627 62.4436 36.6 64.1503 36.6C65.8783 36.6 67.2756 36.92 68.3423 37.56C69.4089 38.1787 70.1876 38.968 70.6783 39.928C71.0596 40.6576 71.2928 41.3936 71.3777 42.136ZM56.5573 49.272C56.6915 49.8874 56.8652 50.4634 57.0783 51C57.6756 52.4294 58.5823 53.528 59.7983 54.296C61.0143 55.0427 62.5716 55.416 64.4703 55.416C65.6436 55.416 66.6463 55.32 67.4783 55.128C68.3316 54.936 69.0143 54.6907 69.5263 54.392C70.0596 54.072 70.4543 53.7307 70.7103 53.368C70.9876 52.984 71.1583 52.6107 71.2223 52.248H82.4863C82.3583 53.72 81.8463 55.1494 80.9503 56.536C80.0543 57.9014 78.8169 59.1387 77.2383 60.248C75.6809 61.336 73.7823 62.2 71.5423 62.84C69.3236 63.48 66.8063 63.8 63.9903 63.8C60.1289 63.8 56.7689 63.0534 53.9103 61.56C51.0516 60.0454 48.8329 57.9547 47.2543 55.288C45.6969 52.6214 44.9183 49.5494 44.9183 46.072C44.9183 42.5307 45.7183 39.4374 47.3183 36.792C48.9183 34.1254 51.1476 32.056 54.0063 30.584C56.8863 29.0907 60.2143 28.344 63.9903 28.344C67.8943 28.344 71.2649 29.1014 74.1023 30.616C76.9396 32.1094 79.1263 34.2214 80.6623 36.952C82.1983 39.6827 82.9663 42.8934 82.9663 46.584C82.9663 47.16 82.9556 47.6827 82.9343 48.152C82.9129 48.6214 82.8809 48.9947 82.8383 49.272H56.5573ZM56.5573 49.272C56.5554 49.2635 56.5536 49.255 56.5518 49.2465C56.3268 48.2049 56.2143 47.0507 56.2143 45.784C56.2143 44.4274 56.3601 43.2114 56.6518 42.136H51.0943V49.272H56.5573Z" fill="#333333"/>
<path d="M51.0943 42.136V49.272H56.5573L56.5518 49.2465C56.3268 48.2049 56.2143 47.0507 56.2143 45.784C56.2143 44.4274 56.3601 43.2114 56.6518 42.136H51.0943Z" fill="#333333"/>
<path d="M10.5598 44.44L14.9758 44.728V32.8012C14.9382 32.8406 14.9009 32.8802 14.8638 32.92C13.9784 33.8694 13.2051 34.9467 12.5438 36.152C11.2211 38.5627 10.5598 41.3254 10.5598 44.44Z" fill="#333333"/>
<path d="M3.54688 76H151C156.523 76 161 80.4772 161 86V88H3.5L3.54688 76Z" fill="#E2A255"/>
<path d="M1.872 132V115.08H9.384C11.24 115.08 12.656 115.528 13.632 116.424C14.608 117.32 15.096 118.552 15.096 120.12C15.096 121.672 14.608 122.904 13.632 123.816C12.656 124.728 11.24 125.184 9.384 125.184H4.968V132H1.872ZM4.968 122.736H9.024C10.048 122.736 10.816 122.512 11.328 122.064C11.84 121.6 12.096 120.952 12.096 120.12C12.096 119.288 11.84 118.648 11.328 118.2C10.816 117.736 10.048 117.504 9.024 117.504H4.968V122.736ZM22.8864 132.24C20.8544 132.24 19.2624 131.68 18.1104 130.56C16.9584 129.44 16.3824 127.904 16.3824 125.952C16.3824 124.688 16.6304 123.584 17.1264 122.64C17.6224 121.696 18.3104 120.96 19.1904 120.432C20.0864 119.904 21.1264 119.64 22.3104 119.64C23.4784 119.64 24.4544 119.888 25.2384 120.384C26.0224 120.88 26.6144 121.576 27.0144 122.472C27.4304 123.368 27.6384 124.416 27.6384 125.616V126.408H18.8064V124.824H25.5024L25.0944 125.16C25.0944 124.04 24.8544 123.184 24.3744 122.592C23.9104 122 23.2304 121.704 22.3344 121.704C21.3424 121.704 20.5744 122.056 20.0304 122.76C19.5024 123.464 19.2384 124.448 19.2384 125.712V126.024C19.2384 127.336 19.5584 128.32 20.1984 128.976C20.8544 129.616 21.7744 129.936 22.9584 129.936C23.6464 129.936 24.2864 129.848 24.8784 129.672C25.4864 129.48 26.0624 129.176 26.6064 128.76L27.4944 130.776C26.9184 131.24 26.2304 131.6 25.4304 131.856C24.6304 132.112 23.7824 132.24 22.8864 132.24ZM30.1549 132V122.976C30.1549 122.464 30.1389 121.944 30.1069 121.416C30.0909 120.888 30.0509 120.376 29.9869 119.88H32.8909L33.2269 123.192H32.7469C32.9069 122.392 33.1709 121.728 33.5389 121.2C33.9229 120.672 34.3869 120.28 34.9309 120.024C35.4749 119.768 36.0669 119.64 36.7069 119.64C36.9949 119.64 37.2269 119.656 37.4029 119.688C37.5789 119.704 37.7549 119.744 37.9309 119.808L37.9069 122.448C37.6029 122.32 37.3389 122.24 37.1149 122.208C36.9069 122.176 36.6429 122.16 36.3229 122.16C35.6349 122.16 35.0509 122.304 34.5709 122.592C34.1069 122.88 33.7549 123.28 33.5149 123.792C33.2909 124.304 33.1789 124.888 33.1789 125.544V132H30.1549ZM39.6008 137.184V122.904C39.6008 122.408 39.5848 121.904 39.5527 121.392C39.5208 120.88 39.4728 120.376 39.4088 119.88H42.3128L42.5768 122.424H42.3128C42.5528 121.576 43.0568 120.904 43.8248 120.408C44.6088 119.896 45.5128 119.64 46.5368 119.64C47.6088 119.64 48.5448 119.896 49.3448 120.408C50.1448 120.904 50.7688 121.624 51.2168 122.568C51.6648 123.496 51.8888 124.616 51.8888 125.928C51.8888 127.24 51.6648 128.368 51.2168 129.312C50.7688 130.256 50.1448 130.984 49.3448 131.496C48.5448 131.992 47.6088 132.24 46.5368 132.24C45.5288 132.24 44.6408 131.992 43.8728 131.496C43.1048 131 42.5928 130.336 42.3368 129.504H42.6008V137.184H39.6008ZM45.6968 129.936C46.6568 129.936 47.4248 129.608 48.0008 128.952C48.5768 128.28 48.8648 127.272 48.8648 125.928C48.8648 124.584 48.5768 123.584 48.0008 122.928C47.4248 122.272 46.6568 121.944 45.6968 121.944C44.7528 121.944 43.9928 122.272 43.4168 122.928C42.8408 123.584 42.5528 124.584 42.5528 125.928C42.5528 127.272 42.8408 128.28 43.4168 128.952C43.9928 129.608 44.7528 129.936 45.6968 129.936ZM58.8516 132.24C57.3636 132.24 56.2516 131.832 55.5156 131.016C54.7796 130.2 54.4116 128.952 54.4116 127.272V119.88H57.4116V127.248C57.4116 128.144 57.5956 128.808 57.9636 129.24C58.3316 129.656 58.8916 129.864 59.6436 129.864C60.4916 129.864 61.1796 129.576 61.7076 129C62.2516 128.424 62.5236 127.664 62.5236 126.72V119.88H65.5236V132H62.5956V129.528H62.9316C62.5796 130.392 62.0436 131.064 61.3236 131.544C60.6196 132.008 59.7956 132.24 58.8516 132.24ZM73.1004 132.24C72.0604 132.24 71.1004 132.12 70.2204 131.88C69.3564 131.624 68.6284 131.272 68.0364 130.824L68.8764 128.808C69.4844 129.224 70.1564 129.544 70.8924 129.768C71.6284 129.992 72.3724 130.104 73.1244 130.104C73.9244 130.104 74.5164 129.968 74.9004 129.696C75.3004 129.424 75.5004 129.056 75.5004 128.592C75.5004 128.224 75.3724 127.936 75.1164 127.728C74.8764 127.504 74.4844 127.336 73.9404 127.224L71.5404 126.768C70.5164 126.544 69.7324 126.16 69.1884 125.616C68.6604 125.072 68.3964 124.36 68.3964 123.48C68.3964 122.728 68.5964 122.064 68.9964 121.488C69.4124 120.912 69.9964 120.464 70.7484 120.144C71.5164 119.808 72.4124 119.64 73.4364 119.64C74.3324 119.64 75.1724 119.76 75.9564 120C76.7564 120.24 77.4284 120.6 77.9724 121.08L77.1084 123.024C76.6124 122.624 76.0444 122.312 75.4044 122.088C74.7644 121.864 74.1404 121.752 73.5324 121.752C72.7004 121.752 72.0924 121.904 71.7084 122.208C71.3244 122.496 71.1324 122.872 71.1324 123.336C71.1324 123.688 71.2444 123.984 71.4684 124.224C71.7084 124.448 72.0764 124.616 72.5724 124.728L74.9724 125.184C76.0444 125.392 76.8524 125.76 77.3964 126.288C77.9564 126.8 78.2364 127.504 78.2364 128.4C78.2364 129.2 78.0204 129.888 77.5884 130.464C77.1564 131.04 76.5564 131.48 75.7884 131.784C75.0204 132.088 74.1244 132.24 73.1004 132.24ZM85.8707 132.24C84.4307 132.24 83.3427 131.864 82.6067 131.112C81.8707 130.36 81.5027 129.232 81.5027 127.728V122.136H79.1747V119.88H81.5027V116.784L84.5027 116.016V119.88H87.7427V122.136H84.5027V127.536C84.5027 128.368 84.6627 128.952 84.9827 129.288C85.3027 129.624 85.7427 129.792 86.3027 129.792C86.6067 129.792 86.8627 129.768 87.0707 129.72C87.2947 129.672 87.5107 129.608 87.7187 129.528V131.904C87.4467 132.016 87.1427 132.096 86.8067 132.144C86.4867 132.208 86.1747 132.24 85.8707 132.24ZM94.4604 132.24C93.4044 132.24 92.4764 131.992 91.6764 131.496C90.8764 130.984 90.2524 130.256 89.8044 129.312C89.3564 128.368 89.1324 127.24 89.1324 125.928C89.1324 124.616 89.3564 123.496 89.8044 122.568C90.2524 121.624 90.8764 120.904 91.6764 120.408C92.4764 119.896 93.4044 119.64 94.4604 119.64C95.4844 119.64 96.3804 119.896 97.1484 120.408C97.9324 120.904 98.4524 121.576 98.7084 122.424H98.4444L98.7084 119.88H101.588C101.54 120.376 101.492 120.88 101.444 121.392C101.412 121.904 101.396 122.408 101.396 122.904V132H98.4204L98.3964 129.504H98.6844C98.4284 130.336 97.9084 131 97.1244 131.496C96.3404 131.992 95.4524 132.24 94.4604 132.24ZM95.3004 129.936C96.2444 129.936 97.0044 129.608 97.5804 128.952C98.1564 128.28 98.4444 127.272 98.4444 125.928C98.4444 124.584 98.1564 123.584 97.5804 122.928C97.0044 122.272 96.2444 121.944 95.3004 121.944C94.3564 121.944 93.5964 122.272 93.0204 122.928C92.4444 123.584 92.1564 124.584 92.1564 125.928C92.1564 127.272 92.4364 128.28 92.9964 128.952C93.5724 129.608 94.3404 129.936 95.3004 129.936ZM104.663 132V114.336H107.663V125.04H107.711L112.631 119.88H116.255L110.135 126.288L110.159 125.088L116.687 132H112.967L107.711 126.576H107.663V132H104.663ZM122.468 132.24C121.412 132.24 120.484 131.992 119.684 131.496C118.884 130.984 118.26 130.256 117.812 129.312C117.364 128.368 117.14 127.24 117.14 125.928C117.14 124.616 117.364 123.496 117.812 122.568C118.26 121.624 118.884 120.904 119.684 120.408C120.484 119.896 121.412 119.64 122.468 119.64C123.492 119.64 124.388 119.896 125.156 120.408C125.94 120.904 126.46 121.576 126.716 122.424H126.452L126.716 119.88H129.596C129.548 120.376 129.5 120.88 129.452 121.392C129.42 121.904 129.404 122.408 129.404 122.904V132H126.428L126.404 129.504H126.692C126.436 130.336 125.916 131 125.132 131.496C124.348 131.992 123.46 132.24 122.468 132.24ZM123.308 129.936C124.252 129.936 125.012 129.608 125.588 128.952C126.164 128.28 126.452 127.272 126.452 125.928C126.452 124.584 126.164 123.584 125.588 122.928C125.012 122.272 124.252 121.944 123.308 121.944C122.364 121.944 121.604 122.272 121.028 122.928C120.452 123.584 120.164 124.584 120.164 125.928C120.164 127.272 120.444 128.28 121.004 128.952C121.58 129.608 122.348 129.936 123.308 129.936ZM137.351 132.24C136.295 132.24 135.367 131.992 134.567 131.496C133.767 130.984 133.143 130.256 132.695 129.312C132.247 128.368 132.023 127.24 132.023 125.928C132.023 124.616 132.247 123.496 132.695 122.568C133.143 121.624 133.767 120.904 134.567 120.408C135.367 119.896 136.295 119.64 137.351 119.64C138.375 119.64 139.271 119.896 140.039 120.408C140.823 120.904 141.343 121.576 141.599 122.424H141.335L141.599 119.88H144.479C144.431 120.376 144.383 120.88 144.335 121.392C144.303 121.904 144.287 122.408 144.287 122.904V132H141.311L141.287 129.504H141.575C141.319 130.336 140.799 131 140.015 131.496C139.231 131.992 138.343 132.24 137.351 132.24ZM138.191 129.936C139.135 129.936 139.895 129.608 140.471 128.952C141.047 128.28 141.335 127.272 141.335 125.928C141.335 124.584 141.047 123.584 140.471 122.928C139.895 122.272 139.135 121.944 138.191 121.944C137.247 121.944 136.487 122.272 135.911 122.928C135.335 123.584 135.047 124.584 135.047 125.928C135.047 127.272 135.327 128.28 135.887 128.952C136.463 129.608 137.231 129.936 138.191 129.936ZM147.554 132V122.904C147.554 122.408 147.538 121.904 147.506 121.392C147.474 120.88 147.426 120.376 147.362 119.88H150.266L150.506 122.28H150.218C150.602 121.432 151.17 120.784 151.922 120.336C152.674 119.872 153.546 119.64 154.538 119.64C155.962 119.64 157.034 120.04 157.754 120.84C158.474 121.64 158.834 122.888 158.834 124.584V132H155.834V124.728C155.834 123.752 155.642 123.056 155.258 122.64C154.89 122.208 154.33 121.992 153.578 121.992C152.65 121.992 151.914 122.28 151.37 122.856C150.826 123.432 150.554 124.2 150.554 125.16V132H147.554ZM168.841 132V115.08H174.985C176.921 115.08 178.553 115.416 179.881 116.088C181.225 116.744 182.241 117.704 182.929 118.968C183.617 120.216 183.961 121.736 183.961 123.528C183.961 125.304 183.617 126.824 182.929 128.088C182.241 129.352 181.225 130.32 179.881 130.992C178.553 131.664 176.921 132 174.985 132H168.841ZM171.937 129.432H174.793C176.841 129.432 178.361 128.944 179.353 127.968C180.345 126.992 180.841 125.512 180.841 123.528C180.841 121.528 180.345 120.048 179.353 119.088C178.361 118.112 176.841 117.624 174.793 117.624H171.937V129.432ZM186.882 132V119.88H189.882V132H186.882ZM186.714 117.6V114.672H190.05V117.6H186.714ZM198.756 137.376C197.636 137.376 196.62 137.256 195.708 137.016C194.812 136.776 194.012 136.408 193.308 135.912L193.956 133.752C194.42 134.056 194.9 134.304 195.396 134.496C195.892 134.688 196.404 134.832 196.932 134.928C197.46 135.024 197.996 135.072 198.54 135.072C199.66 135.072 200.492 134.792 201.036 134.232C201.596 133.688 201.876 132.904 201.876 131.88V128.976H202.116C201.86 129.808 201.34 130.472 200.556 130.968C199.788 131.464 198.9 131.712 197.892 131.712C196.804 131.712 195.852 131.472 195.036 130.992C194.236 130.496 193.612 129.792 193.164 128.88C192.716 127.968 192.492 126.896 192.492 125.664C192.492 124.432 192.716 123.368 193.164 122.472C193.612 121.56 194.236 120.864 195.036 120.384C195.852 119.888 196.804 119.64 197.892 119.64C198.916 119.64 199.804 119.888 200.556 120.384C201.324 120.864 201.836 121.52 202.092 122.352L201.876 122.208L202.116 119.88H205.02C204.956 120.376 204.908 120.88 204.876 121.392C204.844 121.904 204.828 122.408 204.828 122.904V131.52C204.828 133.424 204.308 134.872 203.268 135.864C202.244 136.872 200.74 137.376 198.756 137.376ZM198.708 129.408C199.668 129.408 200.428 129.088 200.988 128.448C201.564 127.792 201.852 126.864 201.852 125.664C201.852 124.464 201.564 123.544 200.988 122.904C200.428 122.264 199.668 121.944 198.708 121.944C197.732 121.944 196.956 122.264 196.38 122.904C195.804 123.544 195.516 124.464 195.516 125.664C195.516 126.864 195.804 127.792 196.38 128.448C196.956 129.088 197.732 129.408 198.708 129.408ZM208.07 132V119.88H211.07V132H208.07ZM207.902 117.6V114.672H211.238V117.6H207.902ZM219.511 132.24C218.071 132.24 216.983 131.864 216.247 131.112C215.511 130.36 215.143 129.232 215.143 127.728V122.136H212.815V119.88H215.143V116.784L218.143 116.016V119.88H221.383V122.136H218.143V127.536C218.143 128.368 218.303 128.952 218.623 129.288C218.943 129.624 219.383 129.792 219.943 129.792C220.247 129.792 220.503 129.768 220.711 129.72C220.935 129.672 221.151 129.608 221.359 129.528V131.904C221.087 132.016 220.783 132.096 220.447 132.144C220.127 132.208 219.815 132.24 219.511 132.24ZM228.101 132.24C227.045 132.24 226.117 131.992 225.317 131.496C224.517 130.984 223.893 130.256 223.445 129.312C222.997 128.368 222.773 127.24 222.773 125.928C222.773 124.616 222.997 123.496 223.445 122.568C223.893 121.624 224.517 120.904 225.317 120.408C226.117 119.896 227.045 119.64 228.101 119.64C229.125 119.64 230.021 119.896 230.789 120.408C231.573 120.904 232.093 121.576 232.349 122.424H232.085L232.349 119.88H235.229C235.181 120.376 235.133 120.88 235.085 121.392C235.053 121.904 235.037 122.408 235.037 122.904V132H232.061L232.037 129.504H232.325C232.069 130.336 231.549 131 230.765 131.496C229.981 131.992 229.093 132.24 228.101 132.24ZM228.941 129.936C229.885 129.936 230.645 129.608 231.221 128.952C231.797 128.28 232.085 127.272 232.085 125.928C232.085 124.584 231.797 123.584 231.221 122.928C230.645 122.272 229.885 121.944 228.941 121.944C227.997 121.944 227.237 122.272 226.661 122.928C226.085 123.584 225.797 124.584 225.797 125.928C225.797 127.272 226.077 128.28 226.637 128.952C227.213 129.608 227.981 129.936 228.941 129.936ZM238.304 132V114.336H241.304V132H238.304ZM257.974 132V115.08H264.118C266.054 115.08 267.686 115.416 269.014 116.088C270.358 116.744 271.374 117.704 272.062 118.968C272.75 120.216 273.094 121.736 273.094 123.528C273.094 125.304 272.75 126.824 272.062 128.088C271.374 129.352 270.358 130.32 269.014 130.992C267.686 131.664 266.054 132 264.118 132H257.974ZM261.07 129.432H263.926C265.974 129.432 267.494 128.944 268.486 127.968C269.478 126.992 269.974 125.512 269.974 123.528C269.974 121.528 269.478 120.048 268.486 119.088C267.494 118.112 265.974 117.624 263.926 117.624H261.07V129.432ZM281.871 132.24C279.839 132.24 278.247 131.68 277.095 130.56C275.943 129.44 275.367 127.904 275.367 125.952C275.367 124.688 275.615 123.584 276.111 122.64C276.607 121.696 277.295 120.96 278.175 120.432C279.071 119.904 280.111 119.64 281.295 119.64C282.463 119.64 283.439 119.888 284.223 120.384C285.007 120.88 285.599 121.576 285.999 122.472C286.415 123.368 286.623 124.416 286.623 125.616V126.408H277.791V124.824H284.487L284.079 125.16C284.079 124.04 283.839 123.184 283.359 122.592C282.895 122 282.215 121.704 281.319 121.704C280.327 121.704 279.559 122.056 279.015 122.76C278.487 123.464 278.223 124.448 278.223 125.712V126.024C278.223 127.336 278.543 128.32 279.183 128.976C279.839 129.616 280.759 129.936 281.943 129.936C282.631 129.936 283.271 129.848 283.863 129.672C284.471 129.48 285.047 129.176 285.591 128.76L286.479 130.776C285.903 131.24 285.215 131.6 284.415 131.856C283.615 132.112 282.767 132.24 281.871 132.24ZM289.163 137.184V122.904C289.163 122.408 289.147 121.904 289.115 121.392C289.083 120.88 289.035 120.376 288.971 119.88H291.875L292.139 122.424H291.875C292.115 121.576 292.619 120.904 293.387 120.408C294.171 119.896 295.075 119.64 296.099 119.64C297.171 119.64 298.107 119.896 298.907 120.408C299.707 120.904 300.331 121.624 300.779 122.568C301.227 123.496 301.451 124.616 301.451 125.928C301.451 127.24 301.227 128.368 300.779 129.312C300.331 130.256 299.707 130.984 298.907 131.496C298.107 131.992 297.171 132.24 296.099 132.24C295.091 132.24 294.203 131.992 293.435 131.496C292.667 131 292.155 130.336 291.899 129.504H292.163V137.184H289.163ZM295.259 129.936C296.219 129.936 296.987 129.608 297.563 128.952C298.139 128.28 298.427 127.272 298.427 125.928C298.427 124.584 298.139 123.584 297.563 122.928C296.987 122.272 296.219 121.944 295.259 121.944C294.315 121.944 293.555 122.272 292.979 122.928C292.403 123.584 292.115 124.584 292.115 125.928C292.115 127.272 292.403 128.28 292.979 128.952C293.555 129.608 294.315 129.936 295.259 129.936ZM308.726 132.24C307.67 132.24 306.742 131.992 305.942 131.496C305.142 130.984 304.518 130.256 304.07 129.312C303.622 128.368 303.398 127.24 303.398 125.928C303.398 124.616 303.622 123.496 304.07 122.568C304.518 121.624 305.142 120.904 305.942 120.408C306.742 119.896 307.67 119.64 308.726 119.64C309.75 119.64 310.646 119.896 311.414 120.408C312.198 120.904 312.718 121.576 312.974 122.424H312.71L312.974 119.88H315.854C315.806 120.376 315.758 120.88 315.71 121.392C315.678 121.904 315.662 122.408 315.662 122.904V132H312.686L312.662 129.504H312.95C312.694 130.336 312.174 131 311.39 131.496C310.606 131.992 309.718 132.24 308.726 132.24ZM309.566 129.936C310.51 129.936 311.27 129.608 311.846 128.952C312.422 128.28 312.71 127.272 312.71 125.928C312.71 124.584 312.422 123.584 311.846 122.928C311.27 122.272 310.51 121.944 309.566 121.944C308.622 121.944 307.862 122.272 307.286 122.928C306.71 123.584 306.422 124.584 306.422 125.928C306.422 127.272 306.702 128.28 307.262 128.952C307.838 129.608 308.606 129.936 309.566 129.936ZM318.905 132V122.976C318.905 122.464 318.889 121.944 318.857 121.416C318.841 120.888 318.801 120.376 318.737 119.88H321.641L321.977 123.192H321.497C321.657 122.392 321.921 121.728 322.289 121.2C322.673 120.672 323.137 120.28 323.681 120.024C324.225 119.768 324.817 119.64 325.457 119.64C325.745 119.64 325.977 119.656 326.153 119.688C326.329 119.704 326.505 119.744 326.681 119.808L326.657 122.448C326.353 122.32 326.089 122.24 325.865 122.208C325.657 122.176 325.393 122.16 325.073 122.16C324.385 122.16 323.801 122.304 323.321 122.592C322.857 122.88 322.505 123.28 322.265 123.792C322.041 124.304 321.929 124.888 321.929 125.544V132H318.905ZM334.214 132.24C332.774 132.24 331.686 131.864 330.95 131.112C330.214 130.36 329.846 129.232 329.846 127.728V122.136H327.518V119.88H329.846V116.784L332.846 116.016V119.88H336.086V122.136H332.846V127.536C332.846 128.368 333.006 128.952 333.326 129.288C333.646 129.624 334.086 129.792 334.646 129.792C334.95 129.792 335.206 129.768 335.414 129.72C335.638 129.672 335.854 129.608 336.062 129.528V131.904C335.79 132.016 335.486 132.096 335.15 132.144C334.83 132.208 334.518 132.24 334.214 132.24ZM343.863 132.24C341.831 132.24 340.239 131.68 339.087 130.56C337.935 129.44 337.359 127.904 337.359 125.952C337.359 124.688 337.607 123.584 338.103 122.64C338.599 121.696 339.287 120.96 340.167 120.432C341.063 119.904 342.103 119.64 343.287 119.64C344.455 119.64 345.431 119.888 346.215 120.384C346.999 120.88 347.591 121.576 347.991 122.472C348.407 123.368 348.615 124.416 348.615 125.616V126.408H339.783V124.824H346.479L346.071 125.16C346.071 124.04 345.831 123.184 345.351 122.592C344.887 122 344.207 121.704 343.311 121.704C342.319 121.704 341.551 122.056 341.007 122.76C340.479 123.464 340.215 124.448 340.215 125.712V126.024C340.215 127.336 340.535 128.32 341.175 128.976C341.831 129.616 342.751 129.936 343.935 129.936C344.623 129.936 345.263 129.848 345.855 129.672C346.463 129.48 347.039 129.176 347.583 128.76L348.471 130.776C347.895 131.24 347.207 131.6 346.407 131.856C345.607 132.112 344.759 132.24 343.863 132.24ZM351.155 132V122.904C351.155 122.408 351.139 121.904 351.107 121.392C351.075 120.88 351.027 120.376 350.963 119.88H353.867L354.107 122.28H353.819C354.155 121.448 354.667 120.8 355.355 120.336C356.059 119.872 356.891 119.64 357.851 119.64C358.811 119.64 359.603 119.872 360.227 120.336C360.867 120.784 361.315 121.488 361.571 122.448H361.187C361.523 121.584 362.075 120.904 362.843 120.408C363.611 119.896 364.491 119.64 365.483 119.64C366.843 119.64 367.859 120.04 368.531 120.84C369.203 121.64 369.539 122.888 369.539 124.584V132H366.539V124.704C366.539 123.744 366.379 123.056 366.059 122.64C365.739 122.208 365.227 121.992 364.523 121.992C363.691 121.992 363.035 122.288 362.555 122.88C362.075 123.456 361.835 124.24 361.835 125.232V132H358.835V124.704C358.835 123.744 358.675 123.056 358.355 122.64C358.035 122.208 357.523 121.992 356.819 121.992C355.987 121.992 355.331 122.288 354.851 122.88C354.387 123.456 354.155 124.24 354.155 125.232V132H351.155ZM378.597 132.24C376.565 132.24 374.973 131.68 373.821 130.56C372.669 129.44 372.093 127.904 372.093 125.952C372.093 124.688 372.341 123.584 372.837 122.64C373.333 121.696 374.021 120.96 374.901 120.432C375.797 119.904 376.837 119.64 378.021 119.64C379.189 119.64 380.165 119.888 380.949 120.384C381.733 120.88 382.325 121.576 382.725 122.472C383.141 123.368 383.349 124.416 383.349 125.616V126.408H374.517V124.824H381.213L380.805 125.16C380.805 124.04 380.565 123.184 380.085 122.592C379.621 122 378.941 121.704 378.045 121.704C377.053 121.704 376.285 122.056 375.741 122.76C375.213 123.464 374.949 124.448 374.949 125.712V126.024C374.949 127.336 375.269 128.32 375.909 128.976C376.565 129.616 377.485 129.936 378.669 129.936C379.357 129.936 379.997 129.848 380.589 129.672C381.197 129.48 381.773 129.176 382.317 128.76L383.205 130.776C382.629 131.24 381.941 131.6 381.141 131.856C380.341 132.112 379.493 132.24 378.597 132.24ZM385.89 132V122.904C385.89 122.408 385.874 121.904 385.842 121.392C385.81 120.88 385.762 120.376 385.698 119.88H388.602L388.842 122.28H388.554C388.938 121.432 389.506 120.784 390.258 120.336C391.01 119.872 391.882 119.64 392.874 119.64C394.298 119.64 395.37 120.04 396.09 120.84C396.81 121.64 397.17 122.888 397.17 124.584V132H394.17V124.728C394.17 123.752 393.978 123.056 393.594 122.64C393.226 122.208 392.666 121.992 391.914 121.992C390.986 121.992 390.25 122.28 389.706 122.856C389.162 123.432 388.89 124.2 388.89 125.16V132H385.89ZM1.872 166V149.08H4.968V156.568H5.016L12.384 149.08H16.128L7.296 157.888L7.32 156.544L16.704 166H12.84L5.016 158.176H4.968V166H1.872ZM23.1677 166.24C21.1357 166.24 19.5437 165.68 18.3917 164.56C17.2397 163.44 16.6637 161.904 16.6637 159.952C16.6637 158.688 16.9117 157.584 17.4077 156.64C17.9037 155.696 18.5917 154.96 19.4717 154.432C20.3677 153.904 21.4077 153.64 22.5917 153.64C23.7597 153.64 24.7357 153.888 25.5197 154.384C26.3037 154.88 26.8957 155.576 27.2957 156.472C27.7117 157.368 27.9197 158.416 27.9197 159.616V160.408H19.0877V158.824H25.7837L25.3757 159.16C25.3757 158.04 25.1357 157.184 24.6557 156.592C24.1917 156 23.5117 155.704 22.6157 155.704C21.6237 155.704 20.8557 156.056 20.3117 156.76C19.7837 157.464 19.5197 158.448 19.5197 159.712V160.024C19.5197 161.336 19.8397 162.32 20.4797 162.976C21.1357 163.616 22.0557 163.936 23.2397 163.936C23.9277 163.936 24.5677 163.848 25.1597 163.672C25.7677 163.48 26.3437 163.176 26.8877 162.76L27.7757 164.776C27.1997 165.24 26.5117 165.6 25.7117 165.856C24.9117 166.112 24.0637 166.24 23.1677 166.24ZM34.7801 166.24C33.7401 166.24 32.7801 166.12 31.9001 165.88C31.0361 165.624 30.3081 165.272 29.7161 164.824L30.5561 162.808C31.1641 163.224 31.8361 163.544 32.5721 163.768C33.3081 163.992 34.0521 164.104 34.8041 164.104C35.6041 164.104 36.1961 163.968 36.5801 163.696C36.9801 163.424 37.1801 163.056 37.1801 162.592C37.1801 162.224 37.0521 161.936 36.7961 161.728C36.5561 161.504 36.1641 161.336 35.6201 161.224L33.2201 160.768C32.1961 160.544 31.4121 160.16 30.8681 159.616C30.3401 159.072 30.0761 158.36 30.0761 157.48C30.0761 156.728 30.2761 156.064 30.6761 155.488C31.0921 154.912 31.6761 154.464 32.4281 154.144C33.1961 153.808 34.0921 153.64 35.1161 153.64C36.0121 153.64 36.8521 153.76 37.6361 154C38.4361 154.24 39.1081 154.6 39.6521 155.08L38.7881 157.024C38.2921 156.624 37.7241 156.312 37.0841 156.088C36.4441 155.864 35.8201 155.752 35.2121 155.752C34.3801 155.752 33.7721 155.904 33.3881 156.208C33.0041 156.496 32.8121 156.872 32.8121 157.336C32.8121 157.688 32.9241 157.984 33.1481 158.224C33.3881 158.448 33.7561 158.616 34.2521 158.728L36.6521 159.184C37.7241 159.392 38.5321 159.76 39.0761 160.288C39.6361 160.8 39.9161 161.504 39.9161 162.4C39.9161 163.2 39.7001 163.888 39.2681 164.464C38.8361 165.04 38.2361 165.48 37.4681 165.784C36.7001 166.088 35.8041 166.24 34.7801 166.24ZM48.3396 166.24C46.3076 166.24 44.7156 165.68 43.5636 164.56C42.4116 163.44 41.8356 161.904 41.8356 159.952C41.8356 158.688 42.0836 157.584 42.5796 156.64C43.0756 155.696 43.7636 154.96 44.6436 154.432C45.5396 153.904 46.5796 153.64 47.7636 153.64C48.9316 153.64 49.9076 153.888 50.6916 154.384C51.4756 154.88 52.0676 155.576 52.4676 156.472C52.8836 157.368 53.0916 158.416 53.0916 159.616V160.408H44.2596V158.824H50.9556L50.5476 159.16C50.5476 158.04 50.3076 157.184 49.8276 156.592C49.3636 156 48.6836 155.704 47.7876 155.704C46.7956 155.704 46.0276 156.056 45.4836 156.76C44.9556 157.464 44.6916 158.448 44.6916 159.712V160.024C44.6916 161.336 45.0116 162.32 45.6516 162.976C46.3076 163.616 47.2276 163.936 48.4116 163.936C49.0996 163.936 49.7396 163.848 50.3316 163.672C50.9396 163.48 51.5156 163.176 52.0596 162.76L52.9476 164.776C52.3716 165.24 51.6836 165.6 50.8836 165.856C50.0836 166.112 49.2356 166.24 48.3396 166.24ZM54.432 171.328C54.128 171.328 53.8 171.304 53.448 171.256C53.08 171.208 52.76 171.128 52.488 171.016V168.64C52.696 168.704 52.92 168.76 53.16 168.808C53.4 168.856 53.632 168.88 53.856 168.88C54.432 168.88 54.88 168.704 55.2 168.352C55.536 168 55.704 167.408 55.704 166.576V153.88H58.704V166.744C58.704 168.248 58.36 169.384 57.672 170.152C56.984 170.936 55.904 171.328 54.432 171.328ZM55.512 151.6V148.672H58.848V151.6H55.512ZM66.5698 166.24C65.5138 166.24 64.5858 165.992 63.7858 165.496C62.9858 164.984 62.3618 164.256 61.9138 163.312C61.4658 162.368 61.2418 161.24 61.2418 159.928C61.2418 158.616 61.4658 157.496 61.9138 156.568C62.3618 155.624 62.9858 154.904 63.7858 154.408C64.5858 153.896 65.5138 153.64 66.5698 153.64C67.5938 153.64 68.4898 153.896 69.2578 154.408C70.0418 154.904 70.5618 155.576 70.8178 156.424H70.5538L70.8178 153.88H73.6978C73.6498 154.376 73.6018 154.88 73.5538 155.392C73.5218 155.904 73.5058 156.408 73.5058 156.904V166H70.5298L70.5058 163.504H70.7938C70.5378 164.336 70.0178 165 69.2338 165.496C68.4498 165.992 67.5618 166.24 66.5698 166.24ZM67.4098 163.936C68.3538 163.936 69.1138 163.608 69.6898 162.952C70.2658 162.28 70.5538 161.272 70.5538 159.928C70.5538 158.584 70.2658 157.584 69.6898 156.928C69.1138 156.272 68.3538 155.944 67.4098 155.944C66.4658 155.944 65.7058 156.272 65.1298 156.928C64.5538 157.584 64.2658 158.584 64.2658 159.928C64.2658 161.272 64.5458 162.28 65.1058 162.952C65.6818 163.608 66.4498 163.936 67.4098 163.936ZM76.7726 166V148.336H79.7726V156.304H79.4366C79.8046 155.44 80.3726 154.784 81.1406 154.336C81.9086 153.872 82.7886 153.64 83.7806 153.64C85.2206 153.64 86.2926 154.048 86.9966 154.864C87.7006 155.664 88.0526 156.888 88.0526 158.536V166H85.0526V158.68C85.0526 157.736 84.8686 157.056 84.5006 156.64C84.1486 156.208 83.5806 155.992 82.7966 155.992C81.8846 155.992 81.1486 156.28 80.5886 156.856C80.0446 157.416 79.7726 158.168 79.7726 159.112V166H76.7726ZM96.4176 166.24C94.9776 166.24 93.8896 165.864 93.1536 165.112C92.4176 164.36 92.0496 163.232 92.0496 161.728V156.136H89.7216V153.88H92.0496V150.784L95.0496 150.016V153.88H98.2896V156.136H95.0496V161.536C95.0496 162.368 95.2096 162.952 95.5296 163.288C95.8496 163.624 96.2896 163.792 96.8496 163.792C97.1536 163.792 97.4096 163.768 97.6176 163.72C97.8416 163.672 98.0576 163.608 98.2656 163.528V165.904C97.9936 166.016 97.6896 166.096 97.3536 166.144C97.0336 166.208 96.7216 166.24 96.4176 166.24ZM106.066 166.24C104.034 166.24 102.442 165.68 101.29 164.56C100.138 163.44 99.5621 161.904 99.5621 159.952C99.5621 158.688 99.8101 157.584 100.306 156.64C100.802 155.696 101.49 154.96 102.37 154.432C103.266 153.904 104.306 153.64 105.49 153.64C106.658 153.64 107.634 153.888 108.418 154.384C109.202 154.88 109.794 155.576 110.194 156.472C110.61 157.368 110.818 158.416 110.818 159.616V160.408H101.986V158.824H108.682L108.274 159.16C108.274 158.04 108.034 157.184 107.554 156.592C107.09 156 106.41 155.704 105.514 155.704C104.522 155.704 103.754 156.056 103.21 156.76C102.682 157.464 102.418 158.448 102.418 159.712V160.024C102.418 161.336 102.738 162.32 103.378 162.976C104.034 163.616 104.954 163.936 106.138 163.936C106.826 163.936 107.466 163.848 108.058 163.672C108.666 163.48 109.242 163.176 109.786 162.76L110.674 164.776C110.098 165.24 109.41 165.6 108.61 165.856C107.81 166.112 106.962 166.24 106.066 166.24ZM113.335 166V156.976C113.335 156.464 113.319 155.944 113.287 155.416C113.271 154.888 113.231 154.376 113.167 153.88H116.071L116.407 157.192H115.927C116.087 156.392 116.351 155.728 116.719 155.2C117.103 154.672 117.567 154.28 118.111 154.024C118.655 153.768 119.247 153.64 119.887 153.64C120.175 153.64 120.407 153.656 120.583 153.688C120.759 153.704 120.935 153.744 121.111 153.808L121.087 156.448C120.783 156.32 120.519 156.24 120.295 156.208C120.087 156.176 119.823 156.16 119.503 156.16C118.815 156.16 118.231 156.304 117.751 156.592C117.287 156.88 116.935 157.28 116.695 157.792C116.471 158.304 116.359 158.888 116.359 159.544V166H113.335ZM127.343 166.24C126.287 166.24 125.359 165.992 124.559 165.496C123.759 164.984 123.135 164.256 122.687 163.312C122.239 162.368 122.015 161.24 122.015 159.928C122.015 158.616 122.239 157.496 122.687 156.568C123.135 155.624 123.759 154.904 124.559 154.408C125.359 153.896 126.287 153.64 127.343 153.64C128.367 153.64 129.263 153.896 130.031 154.408C130.815 154.904 131.335 155.576 131.591 156.424H131.327L131.591 153.88H134.471C134.423 154.376 134.375 154.88 134.327 155.392C134.295 155.904 134.279 156.408 134.279 156.904V166H131.303L131.279 163.504H131.567C131.311 164.336 130.791 165 130.007 165.496C129.223 165.992 128.335 166.24 127.343 166.24ZM128.183 163.936C129.127 163.936 129.887 163.608 130.463 162.952C131.039 162.28 131.327 161.272 131.327 159.928C131.327 158.584 131.039 157.584 130.463 156.928C129.887 156.272 129.127 155.944 128.183 155.944C127.239 155.944 126.479 156.272 125.903 156.928C125.327 157.584 125.039 158.584 125.039 159.928C125.039 161.272 125.319 162.28 125.879 162.952C126.455 163.608 127.223 163.936 128.183 163.936ZM142.226 166.24C141.17 166.24 140.242 165.992 139.442 165.496C138.642 164.984 138.018 164.256 137.57 163.312C137.122 162.368 136.898 161.24 136.898 159.928C136.898 158.616 137.122 157.496 137.57 156.568C138.018 155.624 138.642 154.904 139.442 154.408C140.242 153.896 141.17 153.64 142.226 153.64C143.25 153.64 144.146 153.896 144.914 154.408C145.698 154.904 146.218 155.576 146.474 156.424H146.21L146.474 153.88H149.354C149.306 154.376 149.258 154.88 149.21 155.392C149.178 155.904 149.162 156.408 149.162 156.904V166H146.186L146.162 163.504H146.45C146.194 164.336 145.674 165 144.89 165.496C144.106 165.992 143.218 166.24 142.226 166.24ZM143.066 163.936C144.01 163.936 144.77 163.608 145.346 162.952C145.922 162.28 146.21 161.272 146.21 159.928C146.21 158.584 145.922 157.584 145.346 156.928C144.77 156.272 144.01 155.944 143.066 155.944C142.122 155.944 141.362 156.272 140.786 156.928C140.21 157.584 139.922 158.584 139.922 159.928C139.922 161.272 140.202 162.28 140.762 162.952C141.338 163.608 142.106 163.936 143.066 163.936ZM152.429 166V156.904C152.429 156.408 152.413 155.904 152.381 155.392C152.349 154.88 152.301 154.376 152.237 153.88H155.141L155.381 156.28H155.093C155.477 155.432 156.045 154.784 156.797 154.336C157.549 153.872 158.421 153.64 159.413 153.64C160.837 153.64 161.909 154.04 162.629 154.84C163.349 155.64 163.709 156.888 163.709 158.584V166H160.709V158.728C160.709 157.752 160.517 157.056 160.133 156.64C159.765 156.208 159.205 155.992 158.453 155.992C157.525 155.992 156.789 156.28 156.245 156.856C155.701 157.432 155.429 158.2 155.429 159.16V166H152.429ZM179.62 166.24C178.26 166.24 177.004 166.072 175.852 165.736C174.716 165.384 173.74 164.904 172.924 164.296L173.884 161.872C174.428 162.256 174.996 162.584 175.588 162.856C176.18 163.112 176.812 163.312 177.484 163.456C178.156 163.584 178.868 163.648 179.62 163.648C180.884 163.648 181.796 163.44 182.356 163.024C182.916 162.608 183.196 162.064 183.196 161.392C183.196 160.8 183.004 160.352 182.62 160.048C182.236 159.728 181.548 159.464 180.556 159.256L177.844 158.704C176.292 158.384 175.132 157.848 174.364 157.096C173.596 156.344 173.212 155.336 173.212 154.072C173.212 153.016 173.492 152.096 174.052 151.312C174.612 150.528 175.396 149.92 176.404 149.488C177.412 149.056 178.588 148.84 179.932 148.84C181.132 148.84 182.244 149.016 183.268 149.368C184.292 149.704 185.148 150.192 185.836 150.832L184.876 153.136C184.188 152.56 183.436 152.136 182.62 151.864C181.804 151.576 180.892 151.432 179.884 151.432C178.748 151.432 177.86 151.656 177.22 152.104C176.596 152.536 176.284 153.136 176.284 153.904C176.284 154.496 176.476 154.968 176.86 155.32C177.26 155.672 177.932 155.944 178.876 156.136L181.564 156.664C183.164 156.984 184.348 157.512 185.116 158.248C185.884 158.968 186.268 159.944 186.268 161.176C186.268 162.184 185.996 163.072 185.452 163.84C184.908 164.592 184.14 165.184 183.148 165.616C182.156 166.032 180.98 166.24 179.62 166.24ZM194.417 166.24C193.169 166.24 192.089 165.984 191.177 165.472C190.265 164.96 189.553 164.232 189.041 163.288C188.545 162.344 188.297 161.224 188.297 159.928C188.297 158.632 188.545 157.52 189.041 156.592C189.553 155.648 190.265 154.92 191.177 154.408C192.089 153.896 193.169 153.64 194.417 153.64C195.665 153.64 196.745 153.896 197.657 154.408C198.585 154.92 199.297 155.648 199.793 156.592C200.305 157.52 200.561 158.632 200.561 159.928C200.561 161.224 200.305 162.344 199.793 163.288C199.297 164.232 198.585 164.96 197.657 165.472C196.745 165.984 195.665 166.24 194.417 166.24ZM194.417 163.936C195.361 163.936 196.113 163.608 196.673 162.952C197.233 162.28 197.513 161.272 197.513 159.928C197.513 158.584 197.233 157.584 196.673 156.928C196.113 156.272 195.361 155.944 194.417 155.944C193.473 155.944 192.721 156.272 192.161 156.928C191.601 157.584 191.321 158.584 191.321 159.928C191.321 161.272 191.601 162.28 192.161 162.952C192.721 163.608 193.473 163.936 194.417 163.936ZM207.468 166.24C206.428 166.24 205.468 166.12 204.588 165.88C203.724 165.624 202.996 165.272 202.404 164.824L203.244 162.808C203.852 163.224 204.524 163.544 205.26 163.768C205.996 163.992 206.74 164.104 207.492 164.104C208.292 164.104 208.884 163.968 209.268 163.696C209.668 163.424 209.868 163.056 209.868 162.592C209.868 162.224 209.74 161.936 209.484 161.728C209.244 161.504 208.852 161.336 208.308 161.224L205.908 160.768C204.884 160.544 204.1 160.16 203.556 159.616C203.028 159.072 202.764 158.36 202.764 157.48C202.764 156.728 202.964 156.064 203.364 155.488C203.78 154.912 204.364 154.464 205.116 154.144C205.884 153.808 206.78 153.64 207.804 153.64C208.7 153.64 209.54 153.76 210.324 154C211.124 154.24 211.796 154.6 212.34 155.08L211.476 157.024C210.98 156.624 210.412 156.312 209.772 156.088C209.132 155.864 208.508 155.752 207.9 155.752C207.068 155.752 206.46 155.904 206.076 156.208C205.692 156.496 205.5 156.872 205.5 157.336C205.5 157.688 205.612 157.984 205.836 158.224C206.076 158.448 206.444 158.616 206.94 158.728L209.34 159.184C210.412 159.392 211.22 159.76 211.764 160.288C212.324 160.8 212.604 161.504 212.604 162.4C212.604 163.2 212.388 163.888 211.956 164.464C211.524 165.04 210.924 165.48 210.156 165.784C209.388 166.088 208.492 166.24 207.468 166.24ZM215.171 166V153.88H218.171V166H215.171ZM215.003 151.6V148.672H218.339V151.6H215.003ZM226.109 166.24C225.053 166.24 224.125 165.992 223.325 165.496C222.525 164.984 221.901 164.256 221.453 163.312C221.005 162.368 220.781 161.24 220.781 159.928C220.781 158.616 221.005 157.496 221.453 156.568C221.901 155.624 222.525 154.904 223.325 154.408C224.125 153.896 225.053 153.64 226.109 153.64C227.133 153.64 228.029 153.896 228.797 154.408C229.581 154.904 230.101 155.576 230.357 156.424H230.093L230.357 153.88H233.237C233.189 154.376 233.141 154.88 233.093 155.392C233.061 155.904 233.045 156.408 233.045 156.904V166H230.069L230.045 163.504H230.333C230.077 164.336 229.557 165 228.773 165.496C227.989 165.992 227.101 166.24 226.109 166.24ZM226.949 163.936C227.893 163.936 228.653 163.608 229.229 162.952C229.805 162.28 230.093 161.272 230.093 159.928C230.093 158.584 229.805 157.584 229.229 156.928C228.653 156.272 227.893 155.944 226.949 155.944C226.005 155.944 225.245 156.272 224.669 156.928C224.093 157.584 223.805 158.584 223.805 159.928C223.805 161.272 224.085 162.28 224.645 162.952C225.221 163.608 225.989 163.936 226.949 163.936ZM236.312 166V148.336H239.312V166H236.312ZM249.395 166V149.08H260.555V151.504H252.491V156.304H260.003V158.728H252.491V166H249.395ZM263.13 166V149.08H266.226V166H263.13ZM275.854 166.24C274.494 166.24 273.238 166.072 272.086 165.736C270.95 165.384 269.974 164.904 269.158 164.296L270.118 161.872C270.662 162.256 271.23 162.584 271.822 162.856C272.414 163.112 273.046 163.312 273.718 163.456C274.39 163.584 275.102 163.648 275.854 163.648C277.118 163.648 278.03 163.44 278.59 163.024C279.15 162.608 279.43 162.064 279.43 161.392C279.43 160.8 279.238 160.352 278.854 160.048C278.47 159.728 277.782 159.464 276.79 159.256L274.078 158.704C272.526 158.384 271.366 157.848 270.598 157.096C269.83 156.344 269.446 155.336 269.446 154.072C269.446 153.016 269.726 152.096 270.286 151.312C270.846 150.528 271.63 149.92 272.638 149.488C273.646 149.056 274.822 148.84 276.166 148.84C277.366 148.84 278.478 149.016 279.502 149.368C280.526 149.704 281.382 150.192 282.07 150.832L281.11 153.136C280.422 152.56 279.67 152.136 278.854 151.864C278.038 151.576 277.126 151.432 276.118 151.432C274.982 151.432 274.094 151.656 273.454 152.104C272.83 152.536 272.518 153.136 272.518 153.904C272.518 154.496 272.71 154.968 273.094 155.32C273.494 155.672 274.166 155.944 275.11 156.136L277.798 156.664C279.398 156.984 280.582 157.512 281.35 158.248C282.118 158.968 282.502 159.944 282.502 161.176C282.502 162.184 282.23 163.072 281.686 163.84C281.142 164.592 280.374 165.184 279.382 165.616C278.39 166.032 277.214 166.24 275.854 166.24ZM285.419 166V149.08H288.515V166H285.419ZM292.239 166V149.08H299.751C301.607 149.08 303.023 149.528 303.999 150.424C304.975 151.32 305.463 152.552 305.463 154.12C305.463 155.672 304.975 156.904 303.999 157.816C303.023 158.728 301.607 159.184 299.751 159.184H295.335V166H292.239ZM295.335 156.736H299.391C300.415 156.736 301.183 156.512 301.695 156.064C302.207 155.6 302.463 154.952 302.463 154.12C302.463 153.288 302.207 152.648 301.695 152.2C301.183 151.736 300.415 151.504 299.391 151.504H295.335V156.736ZM321.866 166.24C319.45 166.24 317.65 165.64 316.465 164.44C315.298 163.224 314.714 161.432 314.714 159.064V149.08H317.81V159.04C317.81 160.544 318.13 161.68 318.77 162.448C319.426 163.216 320.458 163.6 321.866 163.6C323.21 163.6 324.218 163.216 324.89 162.448C325.578 161.68 325.922 160.544 325.922 159.04V149.08H328.97V159.064C328.97 161.432 328.37 163.224 327.17 164.44C325.986 165.64 324.218 166.24 321.866 166.24ZM332.575 166V149.08H335.671V166H332.575Z" fill="#333333"/>
</svg>
