<svg width="446" height="856" viewBox="0 0 446 856" fill="none" xmlns="http://www.w3.org/2000/svg">
<path fill-rule="evenodd" clip-rule="evenodd" d="M90.349 571.789C83.221 502.387 158.19 449.74 206.6 399.502C259.022 345.1 305.565 279.185 380.62 270.558C460.297 261.399 539.225 310.516 587.314 374.701C631.339 433.461 629.167 512.421 615.942 584.643C604.884 645.029 563.558 689.834 521.428 734.487C475.601 783.058 432.658 857.92 366.471 849.053C300.49 840.213 253.575 781.656 206.6 734.487C157.249 684.932 97.4944 641.36 90.349 571.789Z" fill="#839F58"/>
<rect x="-21" y="259.719" width="204" height="215" rx="55" transform="rotate(-45.5865 -21 259.719)" fill="#58929C"/>
</svg>
