<svg width="455" height="864" viewBox="0 0 455 864" fill="none" xmlns="http://www.w3.org/2000/svg">
<path fill-rule="evenodd" clip-rule="evenodd" d="M367.549 379.866C375.944 298.125 272.898 256.752 215.881 197.582C154.138 133.508 114.069 35.2373 25.669 25.0764C-68.175 14.2897 -161.136 72.1391 -217.775 147.737C-269.627 216.944 -267.07 309.943 -251.493 395.006C-238.468 466.128 -189.795 518.899 -140.175 571.491C-86.2 628.698 -35.6217 716.871 42.3329 706.426C120.045 696.015 126.583 583.895 181.91 528.339C240.036 469.973 359.133 461.806 367.549 379.866Z" fill="#58929C"/>
<path d="M221.438 544.061C234.85 531.211 240.57 525.243 257.523 519.065C274.407 512.911 294.086 527.878 311.52 541.138L311.776 541.332C330.208 555.351 374.45 525.987 380.658 548.297C387.424 572.613 377.718 592.241 332.777 612.889C275.691 644.064 275.691 705.624 231.506 700.926C207.323 698.355 169.14 684.023 165.617 659.96C161.807 633.932 170.356 612.407 184.646 590.322C193.553 576.556 213.25 551.906 221.438 544.061Z" fill="#839F58"/>
<path fill-rule="evenodd" clip-rule="evenodd" d="M346.995 129.242C349.065 109.09 323.661 98.8909 309.604 84.3038C294.383 68.5076 284.505 44.2812 262.712 41.7763C239.577 39.1171 216.659 53.3786 202.696 72.0155C189.913 89.077 190.543 112.004 194.384 132.974C197.595 150.508 209.594 163.518 221.827 176.483C235.133 190.586 247.602 212.323 266.82 209.748C285.978 207.181 287.59 179.541 301.23 165.845C315.559 151.456 344.92 149.443 346.995 129.242Z" fill="#839F58"/>
<path fill-rule="evenodd" clip-rule="evenodd" d="M194.232 361.067C197.67 327.59 155.468 310.646 132.116 286.413C106.829 260.171 90.4187 219.924 54.2144 215.763C15.7803 211.345 -22.2919 235.037 -45.4888 265.998C-66.725 294.342 -65.6775 332.43 -59.2978 367.268C-53.9637 396.396 -34.0295 418.009 -13.7075 439.548C8.39817 462.977 29.1126 499.088 61.0391 494.811C92.8664 490.547 95.5438 444.628 118.203 421.875C142.009 397.971 190.785 394.626 194.232 361.067Z" fill="#E2A255"/>
</svg>
