<svg width="187" height="90" viewBox="0 0 187 90" fill="none" xmlns="http://www.w3.org/2000/svg">
<path d="M106.031 63.7679C104.645 63.7679 103.194 63.6506 101.679 63.4159C100.165 63.2026 98.7566 62.7546 97.4553 62.0719C96.1539 61.3892 95.0979 60.3652 94.2873 58.9999C93.4766 57.6346 93.0713 55.8212 93.0713 53.5599C93.0713 53.0692 93.0713 52.5892 93.0713 52.1199C93.0713 51.6292 93.0713 51.1386 93.0713 50.6479V37.6559H85.3593V29.0159H86.5433C88.0153 29.0159 89.1886 28.9519 90.0633 28.8239C90.9379 28.6959 91.5886 28.3759 92.0153 27.8639C92.4419 27.3519 92.7193 26.5626 92.8473 25.4959C92.9966 24.4079 93.0713 22.9039 93.0713 20.9839V17.8479H104.527V29.0159H114.127V37.6559H104.527V48.4399C104.527 48.8026 104.527 49.1546 104.527 49.4959C104.527 49.8159 104.527 50.1466 104.527 50.4879C104.527 51.8319 104.687 52.9519 105.007 53.8479C105.327 54.7439 106.159 55.1919 107.503 55.1919C108.25 55.1919 108.954 55.1172 109.615 54.9679C110.277 54.8186 110.767 54.6799 111.087 54.5519V62.9359C110.618 63.1279 109.946 63.3092 109.071 63.4799C108.197 63.6719 107.183 63.7679 106.031 63.7679Z" fill="#333333"/>
<path fill-rule="evenodd" clip-rule="evenodd" d="M3.55176 29.0159V76.9839H14.9758V59.1007C15.833 60.0462 16.793 60.8766 17.8558 61.5919C20.0958 63.0639 22.5598 63.7999 25.2478 63.7999C28.0851 63.7999 30.7091 63.1279 33.1198 61.7839C35.5304 60.4186 37.4718 58.4026 38.9438 55.7359C40.4158 53.0692 41.1518 49.7626 41.1518 45.8159C41.1518 42.0612 40.3944 38.8826 38.8798 36.2799C37.3864 33.6772 35.4238 31.7039 32.9918 30.3599C30.5811 29.0159 27.9998 28.3439 25.2478 28.3439C22.5598 28.3439 20.0958 29.0479 17.8558 30.4559C16.793 31.1201 15.833 31.9019 14.9758 32.8011V29.0159H3.55176ZM14.9758 44.7279V32.8011C14.9382 32.8405 14.9009 32.8801 14.8638 32.9199C13.9784 33.8692 13.2051 34.9466 12.5438 36.1519C11.2211 38.5626 10.5598 41.3252 10.5598 44.4399L14.9758 44.7279ZM14.9758 46.9039C14.9758 48.3972 15.3171 49.6879 15.9998 50.7759C16.7038 51.8426 17.5998 52.6639 18.6878 53.2399C19.7971 53.7946 20.9384 54.0719 22.1118 54.0719C24.0104 54.0719 25.6958 53.4106 27.1678 52.0879C28.6398 50.7652 29.3758 48.6746 29.3758 45.8159C29.3758 42.9572 28.6398 40.8986 27.1678 39.6399C25.7171 38.3599 24.0318 37.7199 22.1118 37.7199C20.9598 37.7199 19.8291 37.9972 18.7198 38.5519C17.6318 39.0852 16.7358 39.8746 16.0318 40.9199C15.3278 41.9439 14.9758 43.2132 14.9758 44.7279V46.5199V46.7439V46.9039Z" fill="#333333"/>
<path fill-rule="evenodd" clip-rule="evenodd" d="M154.634 62.5839C156.554 63.3519 158.74 63.7359 161.194 63.7359C163.242 63.7359 165.183 63.4586 167.018 62.9039C168.852 62.3279 170.442 61.5066 171.786 60.4399C172.171 60.1387 172.526 59.8214 172.85 59.4879C172.925 59.7592 173.007 60.0338 173.098 60.3119C173.332 60.9519 173.61 61.5172 173.93 62.0079C174.271 62.4986 174.527 62.8292 174.698 62.9999H185.866C185.652 62.8079 185.364 62.4452 185.002 61.9119C184.66 61.3786 184.372 60.7279 184.138 59.9599C183.946 59.2559 183.828 58.4879 183.786 57.6559C183.743 56.8026 183.722 55.9279 183.722 55.0319V43.7679V42.4239V41.0799C183.722 38.1786 182.9 35.7892 181.258 33.9119C179.636 32.0346 177.503 30.6372 174.858 29.7199C172.234 28.8026 169.386 28.3439 166.314 28.3439C163.071 28.3439 160.138 28.8346 157.514 29.8159C154.89 30.7972 152.799 32.2479 151.242 34.1679C149.706 36.0666 148.938 38.4132 148.938 41.2079H160.202C160.202 39.7572 160.703 38.6799 161.706 37.9759C162.73 37.2506 164.234 36.8879 166.218 36.8879C168.095 36.8879 169.567 37.2079 170.634 37.8479C171.722 38.4879 172.266 39.3199 172.266 40.3439V40.3759V40.4079C172.266 41.0692 171.604 41.5386 170.282 41.8159C168.98 42.0719 166.538 42.3706 162.954 42.7119C160.479 42.9466 158.132 43.4692 155.914 44.2799C153.695 45.0692 151.892 46.2319 150.506 47.7679C149.119 49.2826 148.426 51.2666 148.426 53.7199C148.426 55.8532 148.98 57.6666 150.09 59.1599C151.199 60.6532 152.714 61.7946 154.634 62.5839ZM168.266 54.6479C167.05 55.1812 165.78 55.4479 164.458 55.4479C162.964 55.4479 161.823 55.2132 161.034 54.7439C160.266 54.2746 159.882 53.5706 159.882 52.6319C159.882 51.6506 160.33 50.9466 161.226 50.5199C162.122 50.0932 163.476 49.7839 165.29 49.5919C166.996 49.4212 168.746 49.1759 170.538 48.8559C171.189 48.7318 171.815 48.5979 172.415 48.4542C172.295 49.925 171.914 51.1363 171.274 52.0879C170.484 53.2612 169.482 54.1146 168.266 54.6479ZM172.458 47.3839C172.458 47.7547 172.444 48.1115 172.415 48.4542C172.435 48.4496 172.454 48.445 172.473 48.4404C173.503 48.1921 174.458 47.9146 175.338 47.6079L172.458 45.0479V47.3839Z" fill="#333333"/>
<path d="M172.458 45.0479V47.3839C172.458 47.7547 172.444 48.1115 172.415 48.4542L172.473 48.4404C173.503 48.1921 174.458 47.9146 175.338 47.6079L172.458 45.0479Z" fill="#333333"/>
<path fill-rule="evenodd" clip-rule="evenodd" d="M119.802 29.0159V62.9999H131.226V47.7999C131.226 46.6692 131.375 45.5386 131.674 44.4079C131.994 43.2772 132.495 42.2532 133.178 41.3359C133.882 40.4186 134.81 39.6932 135.962 39.1599C137.135 38.6052 138.564 38.3279 140.25 38.3279C141.231 38.3279 142.052 38.4452 142.714 38.6799C143.375 38.8932 143.802 39.0532 143.994 39.1599L145.69 29.0799C145.498 28.9732 145.028 28.8239 144.282 28.6319C143.556 28.4399 142.5 28.3439 141.114 28.3439C139.407 28.3439 137.871 28.6106 136.506 29.1439C135.162 29.6772 133.978 30.4452 132.954 31.4479C132.301 32.0869 131.725 32.8163 131.226 33.6362V29.0159H119.802ZM131.226 41.1759V33.6362C131.222 33.6427 131.218 33.6491 131.214 33.6555C130.951 34.0891 130.71 34.5479 130.49 35.0319C129.85 36.4186 129.38 37.9546 129.082 39.6399L131.226 41.1759Z" fill="#333333"/>
<path d="M129.082 39.6399L131.226 41.1759V33.6362L131.214 33.6555C130.951 34.0891 130.71 34.5479 130.49 35.0319C129.85 36.4186 129.38 37.9546 129.082 39.6399Z" fill="#333333"/>
<path fill-rule="evenodd" clip-rule="evenodd" d="M71.3777 42.1359H56.6518C56.7775 41.6724 56.9304 41.2351 57.1103 40.8239C57.7289 39.4372 58.6249 38.3919 59.7983 37.6879C60.9929 36.9626 62.4436 36.5999 64.1503 36.5999C65.8783 36.5999 67.2756 36.9199 68.3423 37.5599C69.4089 38.1786 70.1876 38.9679 70.6783 39.9279C71.0596 40.6575 71.2928 41.3935 71.3777 42.1359ZM56.5573 49.2719C56.6915 49.8873 56.8652 50.4633 57.0783 50.9999C57.6756 52.4292 58.5823 53.5279 59.7983 54.2959C61.0143 55.0426 62.5716 55.4159 64.4703 55.4159C65.6436 55.4159 66.6463 55.3199 67.4783 55.1279C68.3316 54.9359 69.0143 54.6906 69.5263 54.3919C70.0596 54.0719 70.4543 53.7306 70.7103 53.3679C70.9876 52.9839 71.1583 52.6106 71.2223 52.2479H82.4863C82.3583 53.7199 81.8463 55.1492 80.9503 56.5359C80.0543 57.9012 78.8169 59.1386 77.2383 60.2479C75.6809 61.3359 73.7823 62.1999 71.5423 62.8399C69.3236 63.4799 66.8063 63.7999 63.9903 63.7999C60.1289 63.7999 56.7689 63.0532 53.9103 61.5599C51.0516 60.0452 48.8329 57.9546 47.2543 55.2879C45.6969 52.6212 44.9183 49.5492 44.9183 46.0719C44.9183 42.5306 45.7183 39.4372 47.3183 36.7919C48.9183 34.1252 51.1476 32.0559 54.0063 30.5839C56.8863 29.0906 60.2143 28.3439 63.9903 28.3439C67.8943 28.3439 71.2649 29.1012 74.1023 30.6159C76.9396 32.1092 79.1263 34.2212 80.6623 36.9519C82.1983 39.6826 82.9663 42.8932 82.9663 46.5839C82.9663 47.1599 82.9556 47.6826 82.9343 48.1519C82.9129 48.6212 82.8809 48.9946 82.8383 49.2719H56.5573ZM56.5573 49.2719C56.5554 49.2634 56.5536 49.2549 56.5518 49.2464C56.3268 48.2047 56.2143 47.0506 56.2143 45.7839C56.2143 44.4273 56.3601 43.2113 56.6518 42.1359H51.0943V49.2719H56.5573Z" fill="#333333"/>
<path d="M51.0943 42.1359V49.2719H56.5573L56.5518 49.2464C56.3268 48.2047 56.2143 47.0506 56.2143 45.7839C56.2143 44.4273 56.3601 43.2113 56.6518 42.1359H51.0943Z" fill="#333333"/>
<path d="M10.5598 44.4399L14.9758 44.7279V32.8011C14.9382 32.8405 14.9009 32.8801 14.8638 32.9199C13.9784 33.8692 13.2051 34.9466 12.5438 36.1519C11.2211 38.5626 10.5598 41.3252 10.5598 44.4399Z" fill="#333333"/>
<path d="M3.54688 75.9999H151C156.523 75.9999 161 80.477 161 85.9999V87.9999H3.5L3.54688 75.9999Z" fill="#E2A255"/>
</svg>
