<svg width="1160" height="254" viewBox="0 0 1160 254" fill="none" xmlns="http://www.w3.org/2000/svg">
<g clip-path="url(#clip0_716_5011)">
<rect x="1160" y="198" width="1160" height="198" transform="rotate(-180 1160 198)" fill="#4A7E87"/>
<path d="M1167.06 198H0V39.8182C433.429 60.207 961.818 198 1129.33 62.0625C1296.84 -73.875 1167.06 198 1167.06 198Z" fill="#58929C"/>
<path d="M142.574 151.574C131.321 162.826 125 178.087 125 194C125 209.913 131.321 225.174 142.574 236.426C153.826 247.679 169.087 254 185 254C200.913 254 216.174 247.679 227.426 236.426C238.679 225.174 245 209.913 245 194C245 178.087 238.679 162.826 227.426 151.574C216.174 140.321 200.913 134 185 134C169.087 134 153.826 140.321 142.574 151.574Z" fill="#FCFCFC"/>
<path d="M226.009 226.775C220.684 218.195 208.962 209 184.999 209C161.037 209 149.322 218.187 143.989 226.775C148.902 232.934 155.141 237.906 162.241 241.322C169.342 244.737 177.12 246.507 184.999 246.5C192.878 246.507 200.657 244.737 207.757 241.322C214.857 237.906 221.096 232.934 226.009 226.775V226.775Z" fill="#58929C"/>
<path fill-rule="evenodd" clip-rule="evenodd" d="M185 201.5C190.967 201.5 196.69 199.129 200.91 194.91C205.129 190.69 207.5 184.967 207.5 179C207.5 173.033 205.129 167.31 200.91 163.09C196.69 158.871 190.967 156.5 185 156.5C179.033 156.5 173.31 158.871 169.09 163.09C164.871 167.31 162.5 173.033 162.5 179C162.5 184.967 164.871 190.69 169.09 194.91C173.31 199.129 179.033 201.5 185 201.5V201.5Z" fill="#58929C"/>
</g>
<defs>
<clipPath id="clip0_716_5011">
<rect width="1160" height="254" fill="white"/>
</clipPath>
</defs>
</svg>
