<svg width="1160" height="224" viewBox="0 0 1160 224" fill="none" xmlns="http://www.w3.org/2000/svg">
<g clip-path="url(#clip0_716_5011)">
<rect x="1160" y="157" width="1160" height="157" transform="rotate(-180 1160 157)" fill="#4A7E87"/>
<path d="M1167.06 157H0V-1.18181C433.429 19.207 961.818 157 1129.33 21.0625C1296.84 -114.875 1167.06 157 1167.06 157Z" fill="#58929C"/>
<path d="M81.5736 121.574C70.3214 132.826 64 148.087 64 164C64 179.913 70.3214 195.174 81.5736 206.426C92.8258 217.679 108.087 224 124 224C139.913 224 155.174 217.679 166.426 206.426C177.679 195.174 184 179.913 184 164C184 148.087 177.679 132.826 166.426 121.574C155.174 110.321 139.913 104 124 104C108.087 104 92.8258 110.321 81.5736 121.574Z" fill="#FCFCFC"/>
<path d="M165.009 196.775C159.684 188.195 147.962 179 123.999 179C100.037 179 88.3218 188.187 82.9893 196.775C87.9024 202.934 94.1411 207.906 101.241 211.322C108.342 214.737 116.12 216.507 123.999 216.5C131.878 216.507 139.657 214.737 146.757 211.322C153.857 207.906 160.096 202.934 165.009 196.775Z" fill="#58929C"/>
<path fill-rule="evenodd" clip-rule="evenodd" d="M124 171.5C129.967 171.5 135.69 169.129 139.91 164.91C144.129 160.69 146.5 154.967 146.5 149C146.5 143.033 144.129 137.31 139.91 133.09C135.69 128.871 129.967 126.5 124 126.5C118.033 126.5 112.31 128.871 108.09 133.09C103.871 137.31 101.5 143.033 101.5 149C101.5 154.967 103.871 160.69 108.09 164.91C112.31 169.129 118.033 171.5 124 171.5Z" fill="#58929C"/>
</g>
<defs>
<clipPath id="clip0_716_5011">
<rect width="1160" height="224" fill="white"/>
</clipPath>
</defs>
</svg>
