<svg width="1160" height="224" viewBox="0 0 1160 224" fill="none" xmlns="http://www.w3.org/2000/svg">
<g clip-path="url(#clip0_716_5011)">
<rect x="1160" y="157" width="1160" height="157" transform="rotate(-180 1160 157)" fill="#4A7E87"/>
<path d="M1167.06 157H-3.53215e-05V-1.18181C433.429 19.207 961.818 157 1129.33 21.0625C1296.84 -114.875 1167.06 157 1167.06 157Z" fill="#58929C"/>
<path d="M142.574 122.574C131.321 133.826 125 149.087 125 165C125 180.913 131.321 196.174 142.574 207.426C153.826 218.679 169.087 225 185 225C200.913 225 216.174 218.679 227.426 207.426C238.679 196.174 245 180.913 245 165C245 149.087 238.679 133.826 227.426 122.574C216.174 111.321 200.913 105 185 105C169.087 105 153.826 111.321 142.574 122.574Z" fill="#FCFCFC"/>
<path d="M226.009 197.775C220.684 189.195 208.962 180 184.999 180C161.037 180 149.322 189.187 143.989 197.775C148.902 203.934 155.141 208.906 162.241 212.322C169.342 215.737 177.12 217.507 184.999 217.5C192.878 217.507 200.657 215.737 207.757 212.322C214.857 208.906 221.096 203.934 226.009 197.775V197.775Z" fill="#58929C"/>
<path fill-rule="evenodd" clip-rule="evenodd" d="M185 172.5C190.967 172.5 196.69 170.129 200.91 165.91C205.129 161.69 207.5 155.967 207.5 150C207.5 144.033 205.129 138.31 200.91 134.09C196.69 129.871 190.967 127.5 185 127.5C179.033 127.5 173.31 129.871 169.09 134.09C164.871 138.31 162.5 144.033 162.5 150C162.5 155.967 164.871 161.69 169.09 165.91C173.31 170.129 179.033 172.5 185 172.5V172.5Z" fill="#58929C"/>
</g>
<defs>
<clipPath id="clip0_716_5011">
<rect width="1160" height="224" fill="white"/>
</clipPath>
</defs>
</svg>
